<?xml version="1.0" standalone="no"?>
<!DOCTYPE svg PUBLIC "-//W3C//DTD SVG 20010904//EN"
 "http://www.w3.org/TR/2001/REC-SVG-20010904/DTD/svg10.dtd">
<svg version="1.0" xmlns="http://www.w3.org/2000/svg"
 width="260.000000pt" height="260.000000pt" viewBox="0 0 260.000000 260.000000"
 preserveAspectRatio="xMidYMid meet">
<metadata>
Created by potrace 1.11, written by Peter Selinger 2001-2013
</metadata>
<g transform="translate(0.000000,260.000000) scale(0.100000,-0.100000)"
fill="#000000" stroke="none">
<path d="M1105 2484 c-512 -91 -899 -478 -989 -986 -21 -121 -15 -346 13 -463
57 -236 170 -435 338 -596 71 -67 201 -169 217 -169 4 0 23 -11 44 -24 56 -35
206 -92 307 -117 71 -17 122 -22 245 -23 174 -1 227 5 350 41 447 129 783 508
855 963 17 110 12 342 -10 435 -86 371 -314 666 -641 829 -216 108 -502 151
-729 110z m360 -49 c98 -12 223 -52 340 -110 280 -137 475 -361 584 -667 17
-49 29 -88 26 -88 -2 0 0 -14 5 -31 37 -127 31 -375 -11 -529 -124 -449 -490
-775 -949 -846 -68 -10 -220 -12 -281 -4 -126 18 -148 23 -233 51 -327 109
-584 350 -709 665 -62 157 -81 258 -81 434 1 135 10 192 51 330 141 474 609
815 1103 804 52 -1 122 -5 155 -9z"/>
<path d="M1218 2355 c-2 -1 -28 -5 -58 -8 -145 -16 -337 -91 -469 -184 -239
-168 -406 -446 -438 -728 -24 -206 7 -404 91 -580 59 -126 115 -205 210 -301
96 -95 176 -151 300 -210 220 -104 414 -123 706 -69 54 9 188 66 272 114 275
158 473 455 516 778 9 66 8 237 -2 288 -4 17 -9 46 -12 65 -19 117 -102 297
-193 418 -194 257 -487 407 -813 416 -59 2 -108 2 -110 1z m-153 -391 c628
-10 576 -8 621 -31 56 -30 100 -83 118 -142 11 -39 13 -84 8 -208 -3 -87 -6
-255 -6 -373 0 -183 3 -261 17 -384 2 -16 -6 -19 -50 -21 -97 -5 -199 -51
-278 -126 l-52 -49 -39 16 c-139 60 -315 55 -531 -14 l-63 -20 18 30 c30 53
177 183 244 218 l65 34 0 428 c0 389 -1 429 -16 426 -9 -2 -24 -19 -33 -38
-16 -31 -18 -71 -18 -370 0 -205 -4 -350 -11 -373 -13 -47 -70 -112 -120 -137
-40 -21 -115 -41 -123 -33 -2 2 10 27 27 55 32 51 32 53 35 204 4 144 3 153
-16 163 -21 11 -40 0 -60 -36 -17 -30 -35 -3 -28 43 7 51 38 104 78 130 19 13
28 28 28 47 0 36 -12 34 -59 -8 -21 -19 -41 -35 -45 -35 -3 0 -6 14 -6 32 0
45 36 114 76 146 23 18 34 35 34 53 0 38 19 88 51 135 l28 41 -48 30 c-56 35
-95 83 -116 142 -15 43 -15 43 8 36 12 -4 130 -9 262 -11z"/>
<path d="M1249 1758 c0 -7 -1 -201 -2 -431 -1 -270 2 -421 8 -425 6 -4 20 -8
33 -10 l22 -3 0 441 0 440 -30 0 c-17 0 -30 -5 -31 -12z"/>
<path d="M1430 1659 c0 -102 1 -111 18 -104 39 16 99 17 136 1 l38 -16 -4 96
c-4 121 -15 134 -119 134 l-69 0 0 -111z"/>
<path d="M1453 1460 c-22 -9 -23 -14 -23 -129 l0 -120 38 -8 c48 -9 88 -7 123
8 l29 11 0 108 c0 86 -3 110 -16 121 -19 16 -121 22 -151 9z"/>
<path d="M1430 985 l0 -135 38 -15 c36 -16 39 -15 95 11 l57 28 0 124 c0 114
-1 124 -17 117 -33 -14 -112 -17 -142 -7 l-31 11 0 -134z"/>
</g>
</svg>
